<svg xmlns="http://www.w3.org/2000/svg" viewBox="0 0 576 512"><defs><style>.cls-1{fill:#208097;}</style></defs><title>analysis-drop</title><g id="Layer_2" data-name="Layer 2"><path class="cls-1" d="M530,225.94,318.06,14.06A48,48,0,0,0,284.12,0H80A48,48,0,0,0,32,48V252.12a48,48,0,0,0,14.06,33.94L258,497.94a48,48,0,0,0,67.88,0L530,293.82A48,48,0,0,0,530,225.94ZM144,160a48,48,0,1,1,48-48A48,48,0,0,1,144,160ZM359.72,325.78q-15.27,15.78-43.53,20.82v28H280.6V347.87a169,169,0,0,1-36.21-5.81q-17.29-4.79-28.65-11.86l19.18-43.41a122.53,122.53,0,0,0,28.27,11.74,110.61,110.61,0,0,0,30,4.41q12.36,0,17.67-2.4t5.3-7.19q0-5.55-6.94-8.33t-22.84-6a257.11,257.11,0,0,1-34.07-9.22,58,58,0,0,1-23.73-16.15q-10.1-11.22-10.09-30.41,0-22.2,16-38.11t46.06-20.19V137.38h35.59v27q30.29,2.78,51.23,14.63L349.5,222.18q-26-13.12-49.21-13.12-23,0-23,11.1,0,5.31,6.82,8t22.46,5.68a230.77,230.77,0,0,1,34.07,8.71,59.27,59.27,0,0,1,24.1,16Q375,269.64,375,288.81,375,310,359.72,325.78Z"/></g></svg>