<?xml version="1.0" encoding="utf-8"?>
<!-- Generator: Adobe Illustrator 23.0.2, SVG Export Plug-In . SVG Version: 6.00 Build 0)  -->
<svg version="1.1" id="Layer_1" xmlns="http://www.w3.org/2000/svg" xmlns:xlink="http://www.w3.org/1999/xlink" x="0px" y="0px"
	 viewBox="0 0 652.1 548.9" style="enable-background:new 0 0 652.1 548.9;" xml:space="preserve">
<style type="text/css">
	.st0{fill:#3696B3;}
	.st1{fill:#EF1414;}
</style>
<g>
	<path class="st0" d="M488,268.8h-34.8c-7.3,3.9-15.1,7-23.4,9.1c-0.5,0.1-1.1,0.3-1.6,0.4c-1.1,0.3-2.2,0.5-3.3,0.7
		c-0.5,0.1-1.1,0.2-1.6,0.3c-1.1,0.2-2.2,0.4-3.3,0.6c-3.3,0.5-6.5,0.9-9.7,1.1c-1.1,0.1-2.1,0.1-3.2,0.2c-1.1,0-2.1,0-3.2,0
		c-11.6,0-22.9-1.9-33.6-5.6l12.1,32.3h-86c0.2,0.2,0.5,0.4,0.7,0.6c2.9,2.4,5.9,4.7,9,6.8c3,2.1,6.1,4.2,9.2,6.1
		c1.5,0.9,3,1.8,4.5,2.7c0,0,0,0,0,0c1.9,1.1,3.8,2.1,5.7,3.1c1.9,1,3.9,2,5.8,2.9c5.9,2.8,11.9,5.2,18,7.3c2.8,0.9,5.6,1.8,8.4,2.6
		c0.6,0.2,1.1,0.3,1.7,0.5c1.4,0.4,2.8,0.7,4.2,1.1c13,3.2,26.5,4.8,40,4.8h0.3c1.7,0,3.5,0,5.2-0.1c2.1-0.1,4.2-0.2,6.3-0.3
		c2.5-0.2,5.1-0.4,7.7-0.7c16.7-1.9,32.9-6.2,48.1-12.8c-5.2-6.8-11.7-12.5-19.2-16.7l0-0.1h28.1c5,0,9.5-3.2,11.1-8l7.8-23.4
		C501.7,276.6,496,268.8,488,268.8z M336,194.1c8,31.1,35.9,52.9,68,52.9c5.8,0,11.7-0.7,17.5-2.2c1.2-0.3,2.4-0.6,3.6-1
		c-9.2-21.9-24.3-40.6-44-54.2c-14.3-9.9-30.2-16.6-46.9-19.9c0,0.4-0.1,0.7-0.1,1.1c-0.2,2-0.3,4-0.3,5.9c0,1.2,0,2.4,0.1,3.7
		C334.1,185,334.8,189.6,336,194.1z M314.2,229.9c-4.9-8.3-8.8-17.5-11.3-27.3c-1.7-6.7-2.8-13.6-3.1-20.5c-0.1-1.8-0.1-3.6-0.1-5.4
		c0-2.9,0.1-5.9,0.4-8.8c0-0.2,0-0.4,0-0.6h-65.4c0,0.2,0,0.4,0,0.6c-0.1,2.3-0.2,4.5-0.2,6.8v2c0,18,2.9,36,8.5,53.1h67
		C311.3,229.7,312.7,229.8,314.2,229.9z M483.8,364.3c-13.9,5.9-28.5,10.3-43.4,13c3,4.8,4.7,10.4,4.7,16.4
		c0,17.3-14,31.2-31.2,31.2s-46.9,1.6-46.9-15.6c0-8.6,7.3-20.3,16.9-29.8c-14.1-1.4-28.1-4.3-41.7-8.6c-20-6.4-38.7-15.7-55.8-27.8
		c-3.7-2.6-7.3-5.4-10.8-8.2c-10-8.2-19.3-17.2-27.5-27.1H117.3l14.1-37.5c9.1-24.2,32.6-40.5,58.5-40.5h17.3
		c-4.7-17.3-7-35.1-7-53.1v-2.4c0-2.4,0.1-4.7,0.2-7h-10.5c-25.6,0-50.2,7.7-71.2,22.3c-21,14.6-36.8,34.9-45.8,58.8l-7.7,20.4H11.7
		c-8,0-13.6,7.8-11.1,15.4l7.8,23.4c1.6,4.8,6.1,8,11.1,8h28.1l0,0.1c-19.1,10.7-32,31.1-32,54.5v46.9c0,15.8,5.9,30.3,15.6,41.3
		v60.2c0,12.9,10.5,23.4,23.4,23.4h46.9c12.9,0,23.4-10.5,23.4-23.4v-39h249.9v39c0,12.9,10.5,23.4,23.4,23.4h46.9
		c12.9,0,23.4-10.5,23.4-23.4v-60.2c9.7-11,15.6-25.5,15.6-41.3v-46.9C484.1,368.3,484,366.3,483.8,364.3z M85.9,425
		c-17.2,0-31.2-14-31.2-31.2c0-17.2,14-31.2,31.2-31.2s46.9,29.6,46.9,46.9C132.7,426.6,103.1,425,85.9,425z"/>
	<g id="research" transform="translate(0 0.022)">
		<g>
			<path id="Path_299_3_" class="st0" d="M646.4,368.1l-81.4-81.4c-0.2-0.2-0.5-0.4-0.7-0.7c-0.5-0.4-1-0.8-1.5-1.2
				c-3.3-2.5-7.4-3.8-11.6-3.8h-13.4c57.7-73.9,44.5-180.6-29.4-238.3c-2.9-2.3-5.9-4.4-8.9-6.5c-3-2-6.1-4-9.1-5.8
				c-2.1-1.2-4.1-2.4-6.2-3.5c-3.1-1.7-6.3-3.3-9.5-4.7c-1.1-0.5-2.1-1-3.2-1.4c-1.1-0.5-2.2-0.9-3.2-1.4c-1.1-0.4-2.2-0.9-3.3-1.3
				c-1.1-0.4-2.2-0.8-3.3-1.2c-0.8-0.3-1.6-0.6-2.5-0.9c-1.7-0.6-3.3-1.1-5-1.6c-0.8-0.3-1.7-0.5-2.5-0.8c-1.4-0.4-2.8-0.8-4.2-1.2
				c-1.4-0.4-2.8-0.7-4.2-1.1c-1.4-0.3-2.8-0.7-4.2-0.9c-1.4-0.3-2.8-0.6-4.2-0.8c-1.1-0.2-2.3-0.4-3.4-0.6c-2.3-0.4-4.5-0.7-6.8-1
				c-1.1-0.1-2.3-0.3-3.4-0.4c-2.3-0.2-4.6-0.4-6.8-0.5c-3.4-0.2-6.8-0.3-10.3-0.3c-7.2,0-14.4,0.5-21.5,1.4
				c-1.5,0.2-2.9,0.4-4.4,0.6c-3.9,0.6-7.8,1.3-11.6,2.2c-1.4,0.3-2.8,0.6-4.1,1c-6.5,1.6-12.9,3.7-19.2,6c-2.8,1.1-5.5,2.2-8.2,3.4
				c-21.1,9.3-40.5,23.1-56.8,41.1c-1.1,1.2-2.2,2.5-3.3,3.8c-1.6,1.9-3.2,3.9-4.8,5.9c-21.3,27.3-33.8,60.5-35.7,95.1
				c0,0.2,0,0.4,0,0.6c-0.1,2.3-0.2,4.5-0.2,6.8v2c0,18,2.9,36,8.5,53.1c0.1,0.2,0.1,0.4,0.2,0.6c0.8,2.3,1.6,4.6,2.4,6.8
				c10.6,27.6,28.1,52,50.9,70.7c0.2,0.2,0.5,0.4,0.7,0.6c2.9,2.4,5.9,4.7,9,6.8c3,2.1,6.1,4.2,9.2,6.1c1.5,0.9,3,1.8,4.5,2.7
				c0,0,0,0,0,0c1.9,1.1,3.8,2.1,5.7,3.1c1.9,1,3.9,2,5.8,2.9c5.9,2.8,11.9,5.2,18,7.3c2.8,0.9,5.6,1.8,8.4,2.6
				c0.6,0.2,1.1,0.3,1.7,0.5c1.4,0.4,2.8,0.7,4.2,1.1c13,3.2,26.5,4.8,40,4.8h0.3c1.7,0,3.5,0,5.2-0.1c2.1-0.1,4.2-0.2,6.3-0.3
				c2.5-0.2,5.1-0.4,7.7-0.7c16.7-1.9,32.9-6.2,48.1-12.8c13.2-5.7,25.7-13.1,37.1-22.1v13.3c0,5.2,2,10.2,5.7,13.9l81.4,81.4
				c1.9,1.9,4.1,3.3,6.5,4.3c0.9,0.4,1.8,0.7,2.7,0.9c0.8,0.2,1.6,0.3,2.4,0.4c0.4,0,0.8,0.1,1.1,0.1c0.1,0,0.2,0,0.4,0
				c0.2,0,0.4,0,0.7,0h1c0.1,0,0.2,0,0.2,0c0.4,0,0.8,0,1.2-0.1c0.8-0.1,1.6-0.2,2.3-0.4c0.9-0.2,1.8-0.5,2.7-0.9
				c2.4-1,4.6-2.4,6.5-4.3l23.1-23.1C654,388.2,654,375.8,646.4,368.1z M508.1,185.5c-3,35.8-24.1,66.9-54.9,83.3
				c-7.3,3.9-15.1,7-23.4,9.1c-0.5,0.1-1.1,0.3-1.6,0.4c-1.1,0.3-2.2,0.5-3.3,0.7c-0.5,0.1-1.1,0.2-1.6,0.3
				c-1.1,0.2-2.2,0.4-3.3,0.6c-3.3,0.5-6.5,0.9-9.7,1.1c-1.1,0.1-2.1,0.1-3.2,0.2c-1.1,0-2.1,0-3.2,0c-11.6,0-22.9-1.9-33.6-5.6
				c-0.7-0.2-1.4-0.5-2.1-0.8c-1.3-0.5-2.6-1-4-1.5c-5.2-2.2-10.3-4.7-15.1-7.7c-1.2-0.7-2.4-1.5-3.6-2.3
				c-6.4-4.3-12.4-9.4-17.7-15.1c-1-1-1.9-2.1-2.9-3.2c-4-4.7-7.7-9.7-10.9-15.1c-4.9-8.3-8.8-17.5-11.3-27.3
				c-1.7-6.7-2.8-13.6-3.1-20.5c-0.1-1.8-0.1-3.6-0.1-5.4c0-2.9,0.1-5.9,0.4-8.8c0-0.2,0-0.4,0-0.6c1.4-16,6.4-30.8,14.1-43.7
				c0.8-1.4,1.7-2.7,2.5-4.1c3.7-5.7,8-11,12.7-15.8c0.3-0.3,0.6-0.6,0.8-0.9c0.6-0.6,1.1-1.1,1.7-1.7c1.1-1.1,2.3-2.2,3.5-3.2
				c0,0,0,0,0,0c1.8-1.6,3.6-3.1,5.5-4.5c17.6-13.4,39.6-21.3,63.1-21.3c3,0,5.9,0.1,9,0.4C470.4,77.5,513,128,508.1,185.5z"/>
			<path id="Path_299_1_" class="st1" d="M454.3,14.4c1.7,0.5,3.3,1.1,5,1.6C457.6,15.5,456,14.9,454.3,14.4z"/>
		</g>
	</g>
</g>
</svg>
